<svg version="1.1" id="Layer_1" xmlns="http://www.w3.org/2000/svg" xmlns:xlink="http://www.w3.org/1999/xlink" x="0px" y="0px"
	 width="100%" viewBox="0 0 130 130" enable-background="new 0 0 130 130" xml:space="preserve">
<path fill="#0000" opacity="1.000000" stroke="none" 
	d="
M86.000000,131.000000 
	C57.333336,131.000000 29.166674,131.000000 1.000008,131.000000 
	C1.000005,87.666672 1.000005,44.333351 1.000003,1.000019 
	C44.333317,1.000013 87.666634,1.000013 130.999969,1.000006 
	C130.999969,44.333313 130.999969,87.666626 130.999985,130.999969 
	C116.166664,131.000000 101.333336,131.000000 86.000000,131.000000 
M108.171829,38.910843 
	C109.171150,38.907070 110.334366,39.228310 111.132622,38.825787 
	C112.434029,38.169548 113.497215,37.040867 114.660919,36.111538 
	C113.437469,35.299614 112.261993,34.395634 110.967148,33.720680 
	C110.442818,33.447369 109.658066,33.672707 108.991821,33.672703 
	C80.343071,33.672546 51.694313,33.672291 23.045561,33.673721 
	C22.046354,33.673771 20.910307,33.393665 20.082434,33.774883 
	C19.037760,34.255932 18.244461,35.282879 17.342722,36.074333 
	C18.161259,36.988834 18.818981,38.288609 19.841148,38.715267 
	C20.985565,39.192955 22.460062,38.906647 23.790934,38.906898 
	C51.606873,38.912132 79.422813,38.910847 108.171829,38.910843 
M55.500107,60.744106 
	C52.836784,60.744106 50.173462,60.743946 47.510139,60.744137 
	C38.687836,60.744766 29.863310,60.649708 21.045723,60.854046 
	C19.786043,60.883240 18.559952,62.361763 17.318317,63.169525 
	C18.485165,64.080551 19.593578,65.087128 20.848326,65.854416 
	C21.333593,66.151161 22.150520,65.906837 22.816349,65.906837 
	C51.613686,65.907051 80.411324,65.957253 109.207664,65.788643 
	C111.035568,65.777939 112.853508,64.065979 114.676086,63.145462 
	C112.928703,62.345032 111.187950,60.866211 109.432915,60.849064 
	C91.789986,60.676670 74.144714,60.744129 55.500107,60.744106 
M72.500000,93.008430 
	C79.489120,93.008430 86.478241,93.008591 93.467361,93.008369 
	C99.291626,93.008186 105.122452,93.153694 110.935059,92.893173 
	C112.214256,92.835838 113.428825,91.336433 114.673164,90.501099 
	C113.505547,89.612747 112.394852,88.628654 111.141960,87.883736 
	C110.649498,87.590950 109.839073,87.831612 109.173454,87.831604 
	C80.384933,87.831383 51.596134,87.782455 22.808546,87.946587 
	C20.978670,87.957016 19.158234,89.622833 17.333406,90.518555 
	C19.247396,91.348518 21.153055,92.875710 23.076689,92.898697 
	C39.215927,93.091537 55.358459,93.008430 72.500000,93.008430 
z"/>
<path fill="#ffff" opacity="1.000000" stroke="none" 
	d="
M107.705292,38.910843 
	C79.422813,38.910847 51.606873,38.912132 23.790934,38.906898 
	C22.460062,38.906647 20.985565,39.192955 19.841148,38.715267 
	C18.818981,38.288609 18.161259,36.988834 17.342722,36.074333 
	C18.244461,35.282879 19.037760,34.255932 20.082434,33.774883 
	C20.910307,33.393665 22.046354,33.673771 23.045561,33.673721 
	C51.694313,33.672291 80.343071,33.672546 108.991821,33.672703 
	C109.658066,33.672707 110.442818,33.447369 110.967148,33.720680 
	C112.261993,34.395634 113.437469,35.299614 114.660919,36.111538 
	C113.497215,37.040867 112.434029,38.169548 111.132622,38.825787 
	C110.334366,39.228310 109.171150,38.907070 107.705292,38.910843 
z"/>
<path fill="#ffff" opacity="1.000000" stroke="none" 
	d="
M56.000107,60.744102 
	C74.144714,60.744129 91.789986,60.676670 109.432915,60.849064 
	C111.187950,60.866211 112.928703,62.345032 114.676086,63.145462 
	C112.853508,64.065979 111.035568,65.777939 109.207664,65.788643 
	C80.411324,65.957253 51.613686,65.907051 22.816349,65.906837 
	C22.150520,65.906837 21.333593,66.151161 20.848326,65.854416 
	C19.593578,65.087128 18.485165,64.080551 17.318317,63.169525 
	C18.559952,62.361763 19.786043,60.883240 21.045723,60.854046 
	C29.863310,60.649708 38.687836,60.744766 47.510139,60.744137 
	C50.173462,60.743946 52.836784,60.744106 56.000107,60.744102 
z"/>
<path fill="#fff" opacity="1.000000" stroke="none" 
	d="
M72.000000,93.008430 
	C55.358459,93.008430 39.215927,93.091537 23.076689,92.898697 
	C21.153055,92.875710 19.247396,91.348518 17.333406,90.518555 
	C19.158234,89.622833 20.978670,87.957016 22.808546,87.946587 
	C51.596134,87.782455 80.384933,87.831383 109.173454,87.831604 
	C109.839073,87.831612 110.649498,87.590950 111.141960,87.883736 
	C112.394852,88.628654 113.505547,89.612747 114.673164,90.501099 
	C113.428825,91.336433 112.214256,92.835838 110.935059,92.893173 
	C105.122452,93.153694 99.291626,93.008186 93.467361,93.008369 
	C86.478241,93.008591 79.489120,93.008430 72.000000,93.008430 
z"/>
</svg>