<svg version="1.1" id="Layer_1" xmlns="http://www.w3.org/2000/svg" xmlns:xlink="http://www.w3.org/1999/xlink" x="0px" y="0px"
	 width="100%" viewBox="0 0 123 123" enable-background="new 0 0 123 123" xml:space="preserve">
<path fill="#0000" opacity="1.000000" stroke="none" 
	d="
M53.000000,124.000000 
	C35.333332,124.000000 18.166666,124.000000 1.000000,124.000000 
	C1.000000,83.000000 1.000000,42.000000 1.000000,1.000000 
	C42.000000,1.000000 83.000000,1.000000 124.000000,1.000000 
	C124.000000,42.000000 124.000000,83.000000 124.000000,124.000000 
	C100.500000,124.000000 77.000000,124.000000 53.000000,124.000000 
M90.497299,39.602867 
	C75.050049,39.602867 59.602795,39.602867 43.522968,39.602867 
	C44.216572,42.429745 44.776131,44.710320 45.367577,47.120838 
	C62.973995,47.120838 80.085091,47.120838 97.747108,47.120838 
	C95.234207,56.372688 92.825752,65.239998 90.458694,73.954880 
	C75.429321,73.954880 60.965137,73.954880 46.306793,73.954880 
	C45.845116,72.270592 45.387543,70.706612 44.988308,69.127869 
	C42.138817,57.859734 39.339874,46.578644 36.443745,35.322544 
	C34.967365,29.584440 32.887386,28.045235 26.948256,27.964289 
	C24.949814,27.937052 22.785374,27.484192 20.999365,28.101395 
	C19.290762,28.691847 17.975241,30.419765 16.486948,31.647736 
	C17.935896,32.893486 19.212568,34.786064 20.875357,35.228939 
	C23.199059,35.847843 25.810879,35.384991 28.446724,35.384991 
	C28.941225,36.771175 29.486084,37.976776 29.803751,39.239536 
	C32.517101,50.025375 35.322903,60.790833 37.816116,71.627937 
	C39.023594,76.876411 40.365421,81.652794 47.672741,81.866432 
	C40.803261,86.118706 38.670330,90.310501 39.897770,95.933014 
	C40.906170,100.552147 45.304676,104.306755 50.207577,104.733559 
	C54.662590,105.121368 59.696976,102.178932 61.357414,97.801384 
	C63.987846,90.866554 61.147770,85.800728 54.791901,82.073227 
	C64.047234,82.073227 72.686256,82.073227 81.949684,82.073227 
	C75.456184,86.039520 73.164986,90.536049 74.473373,95.880409 
	C75.696259,100.875526 80.222168,104.617500 85.242043,104.783852 
	C89.987785,104.941116 94.663132,101.619553 96.306915,96.922874 
	C98.261406,91.338486 96.332283,86.930054 90.480377,82.728653 
	C92.662315,80.865990 96.225677,79.332634 96.999771,76.908569 
	C100.866020,64.801529 104.000198,52.460709 107.557663,39.602913 
	C101.725395,39.602913 96.610176,39.602913 90.497299,39.602867 
z"/>
<path fill="#ffff" opacity="1.000000" stroke="none" 
	d="
M90.996132,39.602890 
	C96.610176,39.602913 101.725395,39.602913 107.557663,39.602913 
	C104.000198,52.460709 100.866020,64.801529 96.999771,76.908569 
	C96.225677,79.332634 92.662315,80.865990 90.480377,82.728653 
	C96.332283,86.930054 98.261406,91.338486 96.306915,96.922874 
	C94.663132,101.619553 89.987785,104.941116 85.242043,104.783852 
	C80.222168,104.617500 75.696259,100.875526 74.473373,95.880409 
	C73.164986,90.536049 75.456184,86.039520 81.949684,82.073227 
	C72.686256,82.073227 64.047234,82.073227 54.791901,82.073227 
	C61.147770,85.800728 63.987846,90.866554 61.357414,97.801384 
	C59.696976,102.178932 54.662590,105.121368 50.207577,104.733559 
	C45.304676,104.306755 40.906170,100.552147 39.897770,95.933014 
	C38.670330,90.310501 40.803261,86.118706 47.672741,81.866432 
	C40.365421,81.652794 39.023594,76.876411 37.816116,71.627937 
	C35.322903,60.790833 32.517101,50.025375 29.803751,39.239536 
	C29.486084,37.976776 28.941225,36.771175 28.446724,35.384991 
	C25.810879,35.384991 23.199059,35.847843 20.875357,35.228939 
	C19.212568,34.786064 17.935896,32.893486 16.486948,31.647736 
	C17.975241,30.419765 19.290762,28.691847 20.999365,28.101395 
	C22.785374,27.484192 24.949814,27.937052 26.948256,27.964289 
	C32.887386,28.045235 34.967365,29.584440 36.443745,35.322544 
	C39.339874,46.578644 42.138817,57.859734 44.988308,69.127869 
	C45.387543,70.706612 45.845116,72.270592 46.306793,73.954880 
	C60.965137,73.954880 75.429321,73.954880 90.458694,73.954880 
	C92.825752,65.239998 95.234207,56.372688 97.747108,47.120838 
	C80.085091,47.120838 62.973995,47.120838 45.367577,47.120838 
	C44.776131,44.710320 44.216572,42.429745 43.522968,39.602867 
	C59.602795,39.602867 75.050049,39.602867 90.996132,39.602890 
M52.095631,89.425552 
	C50.414589,90.532059 48.450111,91.407761 47.238049,92.896164 
	C46.906448,93.303368 48.543381,96.130707 49.815804,96.762932 
	C50.795910,97.249924 53.814968,96.118919 53.852081,95.567642 
	C53.980480,93.660301 53.201454,91.691864 52.095631,89.425552 
M89.201035,92.106506 
	C87.364563,91.349472 85.528091,90.592438 83.691628,89.835403 
	C83.162338,91.568878 82.187866,93.332397 82.301949,95.022438 
	C82.354614,95.802734 85.083466,97.321297 85.643593,96.972221 
	C87.184425,96.011955 88.220322,94.241463 89.201035,92.106506 
z"/>
<path fill="#fff" opacity="1.000000" stroke="none" 
	d="
M52.431732,89.586121 
	C53.201454,91.691864 53.980480,93.660301 53.852081,95.567642 
	C53.814968,96.118919 50.795910,97.249924 49.815804,96.762932 
	C48.543381,96.130707 46.906448,93.303368 47.238049,92.896164 
	C48.450111,91.407761 50.414589,90.532059 52.431732,89.586121 
z"/>
<path fill="#ffff" opacity="1.000000" stroke="none" 
	d="
M89.328522,92.449020 
	C88.220322,94.241463 87.184425,96.011955 85.643593,96.972221 
	C85.083466,97.321297 82.354614,95.802734 82.301949,95.022438 
	C82.187866,93.332397 83.162338,91.568878 83.691620,89.835403 
	C85.528091,90.592438 87.364563,91.349472 89.328522,92.449020 
z"/>
</svg>