<svg version="1.1" id="Layer_1" xmlns="http://www.w3.org/2000/svg" xmlns:xlink="http://www.w3.org/1999/xlink" x="0px" y="0px"
	 width="100%" viewBox="0 0 512 512" enable-background="new 0 0 512 512" xml:space="preserve">
<path fill="#0000" opacity="1.000000" stroke="none" 
	d="
M155.000000,1.000000 
	C274.291504,1.000000 393.583008,1.000000 512.937256,1.000000 
	C512.937256,171.565002 512.937256,342.130035 512.937256,513.000000 
	C393.976837,513.000000 274.953430,513.000000 155.582489,512.630188 
	C162.128723,510.920959 167.944748,507.528717 172.847183,502.628998 
	C246.045685,429.471283 319.194580,356.263916 392.415771,283.128967 
	C406.786285,268.775421 406.763733,245.226013 392.561188,231.032776 
	C321.363037,159.881180 250.155777,88.738510 179.088882,17.455954 
	C172.016418,10.362034 164.640579,4.132970 155.000000,1.000000 
z"/>
<path fill="#0000" opacity="1.000000" stroke="none" 
	d="
M139.000000,513.000000 
	C93.025551,513.000000 47.051098,513.000000 1.038322,513.000000 
	C1.038322,342.453674 1.038322,171.907349 1.038322,1.000000 
	C46.686928,1.000000 92.374802,1.000000 138.409271,1.373718 
	C126.130508,4.069057 117.456688,11.865918 113.232040,23.323702 
	C107.674309,38.397007 110.851761,52.371265 122.491211,64.006752 
	C185.513443,127.007530 248.523529,190.020462 311.532684,253.034332 
	C312.793060,254.294800 313.991089,255.617569 315.895020,257.624725 
	C314.202942,258.939880 312.625549,259.917664 311.347382,261.194855 
	C249.843658,322.652008 188.358261,384.127441 126.906120,445.636139 
	C123.656273,448.888977 120.509178,452.287109 117.662987,455.892883 
	C107.840538,468.336639 108.618217,489.461700 119.583771,501.189667 
	C125.022903,507.007050 131.611160,510.572266 139.000000,513.000000 
z"/>
<path fill="#808080" opacity="1.000000" stroke="none" 
	d="
M139.466858,513.000000 
	C131.611160,510.572266 125.022903,507.007050 119.583771,501.189667 
	C108.618217,489.461700 107.840538,468.336639 117.662987,455.892883 
	C120.509178,452.287109 123.656273,448.888977 126.906120,445.636139 
	C188.358261,384.127441 249.843658,322.652008 311.347382,261.194855 
	C312.625549,259.917664 314.202942,258.939880 315.895020,257.624725 
	C313.991089,255.617569 312.793060,254.294800 311.532684,253.034332 
	C248.523529,190.020462 185.513443,127.007530 122.491211,64.006752 
	C110.851761,52.371265 107.674309,38.397007 113.232040,23.323702 
	C117.456688,11.865918 126.130508,4.069057 138.877930,1.373718 
	C144.022095,1.000000 149.044189,1.000000 154.533142,1.000000 
	C164.640579,4.132970 172.016418,10.362034 179.088882,17.455954 
	C250.155777,88.738510 321.363037,159.881180 392.561188,231.032776 
	C406.763733,245.226013 406.786285,268.775421 392.415771,283.128967 
	C319.194580,356.263916 246.045685,429.471283 172.847183,502.628998 
	C167.944748,507.528717 162.128723,510.920959 155.117493,512.630188 
	C149.977905,513.000000 144.955811,513.000000 139.466858,513.000000 
z"/>
</svg>