<svg version="1.1" id="Layer_1" xmlns="http://www.w3.org/2000/svg" xmlns:xlink="http://www.w3.org/1999/xlink" x="0px" y="0px"
	 width="100%" viewBox="0 0 512 512" enable-background="new 0 0 512 512" xml:space="preserve">
<path fill="#0000" opacity="1.000000" stroke="none" 
	d="
M513.000000,155.000000 
	C513.000000,274.291412 513.000000,393.582794 513.000000,512.937134 
	C342.435242,512.937134 171.870438,512.937134 1.000000,512.937134 
	C1.000000,394.976837 1.000000,276.953430 1.349479,158.550232 
	C4.866098,163.012756 7.309327,168.576111 11.307741,172.590454 
	C84.554428,246.129135 157.972244,319.497437 231.394424,392.861206 
	C245.359528,406.815155 268.669739,406.805206 282.709808,392.772125 
	C353.882202,321.635071 424.993195,250.436447 496.236603,179.370605 
	C503.404144,172.220932 510.079498,164.962616 513.000000,155.000000 
z"/>
<path fill="#0000" opacity="1.000000" stroke="none" 
	d="
M1.000000,137.000000 
	C1.000000,91.691895 1.000000,46.383793 1.000000,1.037844 
	C171.546448,1.037844 342.092896,1.037844 513.000000,1.037844 
	C513.000000,46.686928 513.000000,92.374809 512.626282,138.409271 
	C509.694519,125.850418 501.789337,117.331772 489.725555,113.057770 
	C474.900848,107.805603 461.493256,111.090820 450.386688,122.176392 
	C387.194122,185.249405 324.093079,248.414062 260.955261,311.541901 
	C259.695465,312.801483 258.366974,313.992279 256.382233,315.864441 
	C255.063400,314.183167 254.073944,312.615417 252.795700,311.336273 
	C189.921463,248.415939 126.914864,185.627335 64.205307,122.543419 
	C49.398029,107.647736 23.665638,106.303352 10.108858,122.569839 
	C6.498683,126.901604 4.005838,132.164566 1.000000,137.000000 
z"/>
<path fill="#808080" opacity="1.000000" stroke="none" 
	d="
M1.000000,137.468536 
	C4.005838,132.164566 6.498683,126.901604 10.108858,122.569839 
	C23.665638,106.303352 49.398029,107.647736 64.205307,122.543419 
	C126.914864,185.627335 189.921463,248.415939 252.795700,311.336273 
	C254.073944,312.615417 255.063400,314.183167 256.382233,315.864441 
	C258.366974,313.992279 259.695465,312.801483 260.955261,311.541901 
	C324.093079,248.414062 387.194122,185.249405 450.386688,122.176392 
	C461.493256,111.090820 474.900848,107.805603 489.725555,113.057770 
	C501.789337,117.331772 509.694519,125.850418 512.626282,138.877930 
	C513.000000,144.022095 513.000000,149.044189 513.000000,154.533142 
	C510.079498,164.962616 503.404144,172.220932 496.236603,179.370605 
	C424.993195,250.436447 353.882202,321.635071 282.709808,392.772125 
	C268.669739,406.805206 245.359528,406.815155 231.394424,392.861206 
	C157.972244,319.497437 84.554428,246.129135 11.307741,172.590454 
	C7.309327,168.576111 4.866098,163.012756 1.349479,158.085220 
	C1.000000,151.312363 1.000000,144.624710 1.000000,137.468536 
z"/>
</svg>