<?xml version="1.0" standalone="no"?>
<!DOCTYPE svg PUBLIC "-//W3C//DTD SVG 20010904//EN"
 "http://www.w3.org/TR/2001/REC-SVG-20010904/DTD/svg10.dtd">
<svg version="1.0" xmlns="http://www.w3.org/2000/svg"
 width="720.000000pt" height="720.000000pt" viewBox="0 0 720.000000 720.000000"
 preserveAspectRatio="xMidYMid meet">

<g transform="translate(0.000000,720.000000) scale(0.100000,-0.100000)"
fill="#ddd" stroke="none">
<path d="M3310 7189 c-847 -72 -1615 -424 -2219 -1014 -612 -598 -966 -1324
-1073 -2200 -16 -130 -16 -620 0 -750 75 -614 254 -1109 579 -1603 135 -205
273 -373 462 -563 594 -593 1306 -936 2166 -1041 158 -19 621 -16 790 5 820
106 1516 439 2094 1002 681 664 1060 1527 1088 2480 25 848 -252 1670 -790
2343 -130 163 -396 429 -559 559 -654 522 -1443 798 -2268 792 -96 -1 -218 -5
-270 -10z m150 -1000 l0 -721 -142 7 c-312 15 -605 44 -846 86 -63 10 -118 19
-123 19 -16 0 -10 26 35 136 259 638 603 1045 991 1170 38 13 73 23 78 24 4 0
7 -325 7 -721z m356 700 c388 -120 735 -526 995 -1163 50 -121 56 -146 40
-146 -5 0 -60 -9 -123 -19 -241 -42 -534 -71 -845 -86 l-143 -7 0 721 c0 396
2 721 4 721 2 0 35 -10 72 -21z m-1138 -147 c-147 -151 -301 -380 -426 -631
-79 -157 -192 -425 -192 -452 0 -7 -12 -8 -32 -4 -62 14 -292 87 -382 122
-109 42 -350 159 -366 177 -8 10 5 28 56 75 272 255 608 475 949 622 124 53
436 161 444 153 3 -2 -20 -30 -51 -62z m2041 -14 c405 -143 811 -390 1134
-688 60 -56 75 -75 67 -85 -16 -19 -256 -136 -366 -178 -90 -35 -320 -108
-381 -122 -21 -4 -33 -3 -33 4 0 27 -113 295 -192 452 -125 251 -317 532 -447
653 -17 17 -31 33 -31 37 0 8 115 -26 249 -73z m-3561 -1025 c163 -99 422
-207 667 -278 72 -21 133 -39 136 -41 4 -2 -9 -61 -27 -131 -104 -393 -170
-839 -194 -1303 -5 -107 -10 -198 -10 -202 0 -5 -326 -8 -725 -8 -684 0 -725
1 -725 18 0 9 5 69 10 132 54 593 257 1143 601 1630 70 99 175 230 185 230 3
0 40 -21 82 -47z m5045 -44 c346 -427 588 -976 676 -1530 18 -109 41 -321 41
-371 0 -17 -41 -18 -725 -18 -399 0 -725 3 -725 8 0 4 -5 95 -10 202 -24 464
-90 910 -194 1303 -18 70 -31 129 -27 131 3 2 42 14 86 26 280 78 603 213 755
316 19 13 39 23 45 21 5 -2 41 -41 78 -88z m-3793 -369 c258 -45 710 -90 901
-90 48 0 101 -3 118 -6 l31 -6 0 -724 0 -724 -726 0 -727 0 7 143 c23 481 88
911 199 1320 31 114 32 117 57 112 14 -2 77 -14 140 -25z m2578 -88 c72 -269
133 -596 167 -907 15 -146 35 -425 35 -507 l0 -48 -725 0 -725 0 0 724 0 724
23 6 c12 3 67 6 122 6 215 1 663 47 923 95 70 12 132 23 137 24 6 1 25 -52 43
-117z m-3258 -1749 c0 -5 5 -96 10 -203 24 -459 85 -875 187 -1275 20 -77 37
-145 40 -151 2 -6 -25 -19 -64 -29 -275 -73 -603 -213 -786 -333 -33 -22 -39
-23 -50 -10 -366 454 -577 870 -698 1374 -43 180 -89 498 -89 617 0 16 41 17
725 17 399 0 725 -3 725 -7z m1730 -717 l0 -723 -31 -7 c-17 -3 -70 -6 -118
-6 -234 0 -750 -58 -1036 -115 l-30 -7 -32 120 c-74 270 -136 606 -168 907
-16 149 -35 428 -35 507 l0 48 725 0 725 0 0 -724z m1726 582 c-22 -446 -86
-888 -183 -1258 -20 -74 -38 -146 -41 -158 -4 -21 -9 -23 -36 -18 -287 58
-802 116 -1037 116 -48 0 -101 3 -118 6 l-31 7 0 723 0 724 726 0 727 0 -7
-142z m1734 125 c0 -119 -46 -437 -89 -617 -121 -503 -333 -922 -698 -1374
-10 -12 -21 -9 -78 27 -83 53 -259 141 -371 186 -91 37 -365 128 -422 140 -19
4 -32 12 -29 18 2 7 20 75 40 152 102 400 163 816 187 1275 5 107 10 198 10
203 0 4 326 7 725 7 684 0 725 -1 725 -17z m-3460 -2433 c0 -396 -2 -720 -4
-720 -2 0 -35 10 -72 21 -388 120 -735 526 -995 1163 -27 66 -49 125 -49 131
0 22 437 85 725 105 216 14 249 16 328 18 l67 2 0 -720z m685 699 c279 -20
715 -83 715 -103 0 -24 -107 -276 -170 -400 -246 -485 -547 -794 -874 -895
-37 -11 -70 -21 -72 -21 -2 0 -4 325 -4 721 l0 722 133 -7 c72 -4 195 -11 272
-17z m-2085 -169 c0 -26 114 -296 192 -451 125 -251 279 -480 426 -631 31 -32
54 -60 51 -62 -6 -7 -309 96 -414 140 -343 144 -712 383 -970 627 -83 79 -90
67 95 161 143 73 312 139 485 190 136 40 135 40 135 26z m3212 -26 c174 -50
343 -116 488 -190 185 -93 178 -82 100 -155 -282 -266 -654 -503 -1020 -651
-92 -38 -364 -127 -369 -122 -2 2 25 34 61 72 152 161 295 376 423 637 83 169
185 409 185 435 0 13 -9 15 132 -26z"/>
</g>
</svg>
