<?xml version="1.0" standalone="no"?>
<!DOCTYPE svg PUBLIC "-//W3C//DTD SVG 20010904//EN"
 "http://www.w3.org/TR/2001/REC-SVG-20010904/DTD/svg10.dtd">
<svg version="1.0" xmlns="http://www.w3.org/2000/svg"
 width="1280.000000pt" height="1280.000000pt" viewBox="0 0 1280.000000 1280.000000"
 preserveAspectRatio="xMidYMid meet">
<g transform="translate(0.000000,1280.000000) scale(0.100000,-0.100000)"
fill="#ffff" stroke="none">
<path d="M6350 12353 c-218 -20 -477 -73 -682 -139 -1029 -332 -1810 -1183
-2037 -2223 -112 -509 -87 -1043 69 -1536 28 -86 2866 -7875 2903 -7966 l13
-34 11 30 c6 17 655 1796 1443 3955 788 2159 1443 3959 1457 4000 233 731 178
1512 -153 2200 -158 327 -328 566 -588 825 -475 474 -1049 761 -1731 867 -101
15 -190 21 -395 23 -146 1 -285 1 -310 -2z m481 -1399 c395 -68 747 -330 928
-692 145 -290 170 -658 66 -968 -81 -242 -247 -471 -450 -622 -145 -107 -364
-201 -545 -233 -41 -7 -138 -13 -215 -13 -158 0 -247 13 -385 56 -390 123
-702 433 -829 827 -46 140 -56 212 -56 391 1 182 15 271 67 420 152 431 534
755 983 834 111 20 321 20 436 0z"/>
</g>
</svg>
