<?xml version="1.0" standalone="no"?>
<!DOCTYPE svg PUBLIC "-//W3C//DTD SVG 20010904//EN"
 "http://www.w3.org/TR/2001/REC-SVG-20010904/DTD/svg10.dtd">
<svg version="1.0" xmlns="http://www.w3.org/2000/svg"
 width="764.000000pt" height="980.000000pt" viewBox="0 0 764.000000 980.000000"
 preserveAspectRatio="xMidYMid meet">

<g transform="translate(0.000000,980.000000) scale(0.100000,-0.100000)"
fill="#ffff" stroke="none">
<path d="M3580 9793 c-799 -57 -1522 -338 -2145 -833 -164 -131 -451 -417
-581 -580 -466 -585 -730 -1218 -826 -1980 -20 -166 -17 -608 5 -745 23 -138
83 -374 135 -530 340 -1026 1266 -2441 2621 -4005 323 -373 744 -831 945
-1030 l86 -84 51 49 c105 102 420 438 634 675 1604 1782 2685 3411 3010 4535
96 332 120 515 112 840 -8 304 -41 541 -113 825 -137 536 -386 1028 -746 1472
-122 151 -403 429 -560 556 -611 488 -1327 771 -2107 832 -124 9 -411 11 -521
3z m497 -513 c1518 -123 2756 -1262 3002 -2760 46 -278 53 -638 17 -835 -104
-563 -428 -1252 -991 -2105 -527 -798 -1417 -1909 -2217 -2769 l-69 -74 -68
74 c-901 980 -1746 2042 -2281 2868 -530 820 -822 1453 -927 2011 -25 131 -25
541 0 717 131 936 612 1733 1371 2275 472 337 1046 547 1636 597 141 12 382
12 527 1z"/>
<path d="M3620 7830 c-497 -61 -943 -317 -1241 -713 -165 -219 -286 -496 -334
-767 -35 -200 -31 -476 11 -680 44 -213 164 -490 291 -670 87 -123 310 -346
433 -433 120 -85 343 -196 482 -242 203 -65 305 -80 558 -80 253 0 355 15 558
80 139 45 362 158 482 243 310 220 550 546 669 907 72 217 97 395 88 630 -6
175 -26 297 -73 451 -198 658 -742 1137 -1429 1259 -107 19 -389 28 -495 15z
m450 -524 c502 -107 883 -474 1006 -968 35 -143 44 -353 20 -499 -44 -267
-159 -497 -346 -693 -176 -183 -384 -303 -640 -367 -84 -21 -118 -24 -290 -24
-210 0 -279 11 -445 71 -295 106 -570 353 -714 642 -159 318 -173 727 -35
1060 180 434 579 736 1054 796 70 9 317 -3 390 -18z"/>
</g>
</svg>
